<mxfile host="Electron" modified="2024-05-31T19:03:42.138Z" agent="Mozilla/5.0 (Windows NT 10.0; Win64; x64) AppleWebKit/537.36 (KHTML, like Gecko) draw.io/24.4.8 Chrome/124.0.6367.207 Electron/30.0.6 Safari/537.36" etag="x_yZV4GY0ts6AlTNf_3F" version="24.4.8" type="device">
  <diagram name="Page-1" id="GSPTp9eMcc7sKFe3jLTq">
    <mxGraphModel dx="1061" dy="784" grid="1" gridSize="10" guides="1" tooltips="1" connect="1" arrows="1" fold="1" page="1" pageScale="1" pageWidth="850" pageHeight="1100" math="0" shadow="0">
      <root>
        <mxCell id="0" />
        <mxCell id="1" parent="0" />
        <mxCell id="7-8q96B1HoA_llLnefRa-5" value="" style="rounded=1;whiteSpace=wrap;html=1;" vertex="1" parent="1">
          <mxGeometry x="66.52" y="380" width="223.48" height="200" as="geometry" />
        </mxCell>
        <mxCell id="7-8q96B1HoA_llLnefRa-10" style="rounded=0;orthogonalLoop=1;jettySize=auto;html=1;entryX=0.022;entryY=0.053;entryDx=0;entryDy=0;entryPerimeter=0;" edge="1" parent="1" source="7-8q96B1HoA_llLnefRa-1" target="7-8q96B1HoA_llLnefRa-4">
          <mxGeometry relative="1" as="geometry" />
        </mxCell>
        <mxCell id="7-8q96B1HoA_llLnefRa-1" value="VNET" style="image;aspect=fixed;html=1;points=[];align=center;fontSize=12;image=img/lib/azure2/networking/Virtual_Networks.svg;" vertex="1" parent="1">
          <mxGeometry x="30" y="280" width="67" height="40" as="geometry" />
        </mxCell>
        <mxCell id="7-8q96B1HoA_llLnefRa-4" value="Secure HUB" style="shape=image;verticalLabelPosition=bottom;labelBackgroundColor=default;verticalAlign=top;aspect=fixed;imageAspect=0;image=data:image/svg+xml,PHN2ZyB4bWxuczp4bGluaz0iaHR0cDovL3d3dy53My5vcmcvMTk5OS94bGluayIgeG1sbnM9Imh0dHA6Ly93d3cudzMub3JnLzIwMDAvc3ZnIiBkYXRhLXR5cGU9IjEiIGlkPSJGeFN5bWJvbDAtMDU3IiByb2xlPSJwcmVzZW50YXRpb24iIGNsYXNzPSIiIHZpZXdCb3g9IjAgMCAzNCAzNCI+PGc+PHRpdGxlLz48ZyBjbGlwLXBhdGg9InVybCgjNjc2OWRiZGMtZmU4Zi00YTZiLThmNTAtYjY2MWJhYTJkMGJkKSI+PHBhdGggZmlsbD0iIzY2NiIgZD0iTTI3LjAxMSA4LjAwOWEyLjQ3NCAyLjQ3NCAwIDAgMS0xLjAyLTEuMDAxbC00LjYyOCA0LjY2NWgyLjAwM0wyNy4wMSA4LjAxWk0xNy43NTYgNS40NGMtLjI0Ni4wNy0uNS4xMDgtLjc1Ni4xMTNhMy4xNTQgMy4xNTQgMCAwIDEtLjcxOC0uMTEzdjYuMjMzaDEuNDc0VjUuNDRaTTguMDA5IDcuMDA4YTIuNjgyIDIuNjgyIDAgMCAxLTEuMDAxIDFsMy42NjQgMy42NjVoMi4wMjFMOC4wMSA3LjAwOFpNMTYuMzIgMjguNTZjLjIyMi0uMDYzLjQ1LS4xLjY4LS4xMTMuMjQzLjAwOC40ODQuMDQ2LjcxOC4xMTN2LTYuMjMzSDE2LjMydjYuMjMzWm0tOS4zMTItMi40OTNjLjQxNy4yMzguNzYzLjU4MyAxIDFsNC43NDItNC43NGgtMi4wMDJsLTMuNzQgMy43NFptMTkuOTg0IDAtMy43NzgtMy43NzhIMjEuMjVsNC43NDEgNC43NDFjLjI0OS0uNC41OTMtLjczIDEuMDAxLS45NjNaIi8+PHBhdGggZmlsbD0iI2EwYTFhMiIgY2xhc3M9Im1zcG9ydGFsZngtc3ZnLWMwMyIgZD0iTTE3Ljc1NiA1LjQ0YTIuNzM5IDIuNzM5IDAgMCAwIDIuMDU4LTIuNjYzQTIuNzc3IDIuNzc3IDAgMSAwIDE2LjMyIDUuNDRjLjIyMi4wNjMuNDUuMS42OC4xMTMuMjU2LS4wMDUuNTEtLjA0My43NTYtLjExM1pNOC4wMDkgNy4wMDhjLjI0Ni0uNDA1LjM4My0uODY3LjM5Ny0xLjM0MWEyLjc3NyAyLjc3NyAwIDEgMC0yLjc0IDIuNzIgMi42NTEgMi42NTEgMCAwIDAgMi4zNDMtMS4zNzlaTTE2LjMyIDI4LjU2YTIuNzc3IDIuNzc3IDAgMSAwIDEuNDM2IDAgMyAzIDAgMCAwLS43NTYtLjExM2MtLjIzLjAxMy0uNDU4LjA1LS42OC4xMTNaTTI3LjAxMSA4LjAwOWMuNDEuMjUuODguMzggMS4zNi4zNzhhMi43NzcgMi43NzcgMCAxIDAtMi43NzYtMi43MmMtLjAwMi40OTQuMTM1Ljk3OC4zOTYgMS4zOTcuMjQzLjQwNi41OTcuNzM0IDEuMDIuOTQ1Wk03LjAwOCAyNi4wNjdhMi42NjQgMi42NjQgMCAwIDAtMS4zNDEtLjM5NyAyLjc3NyAyLjc3NyAwIDEgMCAyLjc3NiAyLjc3NyAyLjY2MyAyLjY2MyAwIDAgMC0uMzk2LTEuMzggMi42ODIgMi42ODIgMCAwIDAtMS4wNC0xWm0yMS4zMjUtLjM5N2EyLjY1IDIuNjUgMCAwIDAtMS4zNzkuMzk3IDIuODM0IDIuODM0IDAgMCAwLTEgMSAyLjY2MyAyLjY2MyAwIDAgMC0uMzk3IDEuMzggMi43NzcgMi43NzcgMCAxIDAgMi43NzYtMi43NzdaIi8+PHBhdGggZmlsbD0iIzgyMTAxMCIgZD0iTTI2LjQ0NCAyMi4zMjdhLjc3Ni43NzYgMCAwIDAgLjc5NC0uNzU2VjEyLjQzYS43NzYuNzc2IDAgMCAwLS43OTQtLjc1Nkg3LjU1NmEuNzc1Ljc3NSAwIDAgMC0uNzk0Ljc1NnY5LjE0MmEuNzc1Ljc3NSAwIDAgMCAuNzk0Ljc1NmgxOC44ODhabS0uMjA3LTQuMTk0aC0yLjMwNVYxNS44M2gyLjMwNXYyLjMwNFptLTUuNDYtNS40MDJoNS41MzV2Mi4zOGgtNS41MzR2LTIuMzhabTIuMzA1IDMuMDk4djIuMzA0aC01LjYxVjE1LjgzaDUuNjFabS04Ljc0NS0zLjA5OGg1LjUzNHYyLjM4aC01LjUzNHYtMi4zOFptMi4zMDQgMy4wOTh2Mi4zMDRoLTUuNTM0VjE1LjgzaDUuNTM0Wm0tOC42Ny0zLjA5OGg1LjUzNHYyLjM4SDcuOTcxdi0yLjM4Wm0wIDMuMDk4aDIuMjg2djIuMzA0SDcuOTdWMTUuODNabTUuNTM0IDUuNDIxSDcuOTcxdi0yLjM2MWg1LjUzNHYyLjM2MVptNi4zNjYgMGgtNS41MzR2LTIuMzYxaDUuNTM0djIuMzYxWm0uODMxIDB2LTIuMzYxaDUuNTM1djIuMzIzbC01LjUzNS4wMzhaIi8+PHBhdGggZmlsbD0iI0U2MjMyMyIgZD0iTTEzLjUwNiAxMi43MzFINy45N3YyLjMwNWg1LjUzNVYxMi43M1oiLz48cGF0aCBmaWxsPSIjRkY3MzgxIiBkPSJNMTkuODcxIDEyLjczMWgtNS41MzR2Mi4zMDVoNS41MzRWMTIuNzNaIi8+PHBhdGggZmlsbD0iI0U2MjMyMyIgZD0iTTI2LjIzNyAxMi43MzFoLTUuNTM1djIuMzA1aDUuNTM1VjEyLjczWm0tMTUuOTYxIDMuMDk4SDcuOTd2Mi4zMDRoMi4zMDVWMTUuODNaIi8+PHBhdGggZmlsbD0iI0ZGNzM4MSIgZD0iTTI2LjIzNyAxNS44MjloLTIuMzA1djIuMzA0aDIuMzA1VjE1LjgzWm0tOS41OTcgMGgtNS41MzR2Mi4zMDRoNS41MzVWMTUuODNaIi8+PHBhdGggZmlsbD0iI0U2MjMyMyIgZD0iTTIzLjAwNyAxNS44MjloLTUuNTM1djIuMzA0aDUuNTM1VjE1LjgzWm0tOS41MDEgMy4wOThINy45N3YyLjMwNGg1LjUzNXYtMi4zMDRaIi8+PHBhdGggZmlsbD0iI0ZGNzM4MSIgZD0iTTE5Ljg3MSAxOC45MjdoLTUuNTM0djIuMzA0aDUuNTM0di0yLjMwNFoiLz48cGF0aCBmaWxsPSIjRTYyMzIzIiBkPSJNMjYuMjM3IDE4LjkyN2gtNS41MzV2Mi4zMDRoNS41MzV2LTIuMzA0WiIvPjwvZz48ZGVmcy8+PC9nPjxkZWZzPiYjeGE7PGNsaXBQYXRoIGlkPSI2NzY5ZGJkYy1mZThmLTRhNmItOGY1MC1iNjYxYmFhMmQwYmQiPjxwYXRoIGNsYXNzPSJtc3BvcnRhbGZ4LXN2Zy1jMDEiIGQ9Ik0wIDBoMzR2MzRIMHoiLz48L2NsaXBQYXRoPiYjeGE7PC9kZWZzPiYjeGE7PC9zdmc+;" vertex="1" parent="1">
          <mxGeometry x="141.90999999999997" y="410" width="84" height="84" as="geometry" />
        </mxCell>
        <mxCell id="7-8q96B1HoA_llLnefRa-2" value="Azure vWAN" style="image;aspect=fixed;html=1;points=[];align=center;fontSize=12;image=img/lib/azure2/networking/Virtual_WANs.svg;" vertex="1" parent="1">
          <mxGeometry x="140.6" y="540" width="85.31" height="84" as="geometry" />
        </mxCell>
        <mxCell id="7-8q96B1HoA_llLnefRa-11" style="edgeStyle=none;rounded=0;orthogonalLoop=1;jettySize=auto;html=1;entryX=0.206;entryY=0.022;entryDx=0;entryDy=0;entryPerimeter=0;" edge="1" parent="1" source="7-8q96B1HoA_llLnefRa-6" target="7-8q96B1HoA_llLnefRa-4">
          <mxGeometry relative="1" as="geometry" />
        </mxCell>
        <mxCell id="7-8q96B1HoA_llLnefRa-6" value="VNET" style="image;aspect=fixed;html=1;points=[];align=center;fontSize=12;image=img/lib/azure2/networking/Virtual_Networks.svg;" vertex="1" parent="1">
          <mxGeometry x="80" y="230" width="67" height="40" as="geometry" />
        </mxCell>
        <mxCell id="7-8q96B1HoA_llLnefRa-13" style="edgeStyle=none;rounded=0;orthogonalLoop=1;jettySize=auto;html=1;entryX=0.5;entryY=0;entryDx=0;entryDy=0;" edge="1" parent="1" source="7-8q96B1HoA_llLnefRa-7" target="7-8q96B1HoA_llLnefRa-4">
          <mxGeometry relative="1" as="geometry">
            <mxPoint x="183.54099999999994" y="390" as="targetPoint" />
          </mxGeometry>
        </mxCell>
        <mxCell id="7-8q96B1HoA_llLnefRa-7" value="VNET" style="image;aspect=fixed;html=1;points=[];align=center;fontSize=12;image=img/lib/azure2/networking/Virtual_Networks.svg;" vertex="1" parent="1">
          <mxGeometry x="147" y="190" width="67" height="40" as="geometry" />
        </mxCell>
        <mxCell id="7-8q96B1HoA_llLnefRa-8" value="VNET" style="image;aspect=fixed;html=1;points=[];align=center;fontSize=12;image=img/lib/azure2/networking/Virtual_Networks.svg;" vertex="1" parent="1">
          <mxGeometry x="217.41" y="230" width="67" height="40" as="geometry" />
        </mxCell>
        <mxCell id="7-8q96B1HoA_llLnefRa-9" value="VNET" style="image;aspect=fixed;html=1;points=[];align=center;fontSize=12;image=img/lib/azure2/networking/Virtual_Networks.svg;" vertex="1" parent="1">
          <mxGeometry x="270" y="290" width="67" height="40" as="geometry" />
        </mxCell>
        <mxCell id="7-8q96B1HoA_llLnefRa-14" style="edgeStyle=none;rounded=0;orthogonalLoop=1;jettySize=auto;html=1;entryX=0.743;entryY=-0.048;entryDx=0;entryDy=0;entryPerimeter=0;" edge="1" parent="1" source="7-8q96B1HoA_llLnefRa-8" target="7-8q96B1HoA_llLnefRa-4">
          <mxGeometry relative="1" as="geometry">
            <mxPoint x="210.7689999999999" y="401.72" as="targetPoint" />
          </mxGeometry>
        </mxCell>
        <mxCell id="7-8q96B1HoA_llLnefRa-19" style="edgeStyle=none;rounded=0;orthogonalLoop=1;jettySize=auto;html=1;entryX=0.947;entryY=-0.021;entryDx=0;entryDy=0;entryPerimeter=0;" edge="1" parent="1" source="7-8q96B1HoA_llLnefRa-9" target="7-8q96B1HoA_llLnefRa-4">
          <mxGeometry relative="1" as="geometry">
            <mxPoint x="215.79399999999998" y="418.8399999999999" as="targetPoint" />
          </mxGeometry>
        </mxCell>
        <mxCell id="7-8q96B1HoA_llLnefRa-20" value="" style="rounded=1;whiteSpace=wrap;html=1;" vertex="1" parent="1">
          <mxGeometry x="496.52" y="380" width="223.48" height="200" as="geometry" />
        </mxCell>
        <mxCell id="7-8q96B1HoA_llLnefRa-21" style="rounded=0;orthogonalLoop=1;jettySize=auto;html=1;entryX=0.022;entryY=0.053;entryDx=0;entryDy=0;entryPerimeter=0;" edge="1" parent="1" source="7-8q96B1HoA_llLnefRa-22" target="7-8q96B1HoA_llLnefRa-23">
          <mxGeometry relative="1" as="geometry" />
        </mxCell>
        <mxCell id="7-8q96B1HoA_llLnefRa-22" value="VNET" style="image;aspect=fixed;html=1;points=[];align=center;fontSize=12;image=img/lib/azure2/networking/Virtual_Networks.svg;fillColor=#f5f5f5;fontColor=#333333;strokeColor=#666666;" vertex="1" parent="1">
          <mxGeometry x="460" y="280" width="67" height="40" as="geometry" />
        </mxCell>
        <mxCell id="7-8q96B1HoA_llLnefRa-23" value="Secure HUB" style="shape=image;verticalLabelPosition=bottom;labelBackgroundColor=default;verticalAlign=top;aspect=fixed;imageAspect=0;image=data:image/svg+xml,PHN2ZyB4bWxuczp4bGluaz0iaHR0cDovL3d3dy53My5vcmcvMTk5OS94bGluayIgeG1sbnM9Imh0dHA6Ly93d3cudzMub3JnLzIwMDAvc3ZnIiBkYXRhLXR5cGU9IjEiIGlkPSJGeFN5bWJvbDAtMDU3IiByb2xlPSJwcmVzZW50YXRpb24iIGNsYXNzPSIiIHZpZXdCb3g9IjAgMCAzNCAzNCI+PGc+PHRpdGxlLz48ZyBjbGlwLXBhdGg9InVybCgjNjc2OWRiZGMtZmU4Zi00YTZiLThmNTAtYjY2MWJhYTJkMGJkKSI+PHBhdGggZmlsbD0iIzY2NiIgZD0iTTI3LjAxMSA4LjAwOWEyLjQ3NCAyLjQ3NCAwIDAgMS0xLjAyLTEuMDAxbC00LjYyOCA0LjY2NWgyLjAwM0wyNy4wMSA4LjAxWk0xNy43NTYgNS40NGMtLjI0Ni4wNy0uNS4xMDgtLjc1Ni4xMTNhMy4xNTQgMy4xNTQgMCAwIDEtLjcxOC0uMTEzdjYuMjMzaDEuNDc0VjUuNDRaTTguMDA5IDcuMDA4YTIuNjgyIDIuNjgyIDAgMCAxLTEuMDAxIDFsMy42NjQgMy42NjVoMi4wMjFMOC4wMSA3LjAwOFpNMTYuMzIgMjguNTZjLjIyMi0uMDYzLjQ1LS4xLjY4LS4xMTMuMjQzLjAwOC40ODQuMDQ2LjcxOC4xMTN2LTYuMjMzSDE2LjMydjYuMjMzWm0tOS4zMTItMi40OTNjLjQxNy4yMzguNzYzLjU4MyAxIDFsNC43NDItNC43NGgtMi4wMDJsLTMuNzQgMy43NFptMTkuOTg0IDAtMy43NzgtMy43NzhIMjEuMjVsNC43NDEgNC43NDFjLjI0OS0uNC41OTMtLjczIDEuMDAxLS45NjNaIi8+PHBhdGggZmlsbD0iI2EwYTFhMiIgY2xhc3M9Im1zcG9ydGFsZngtc3ZnLWMwMyIgZD0iTTE3Ljc1NiA1LjQ0YTIuNzM5IDIuNzM5IDAgMCAwIDIuMDU4LTIuNjYzQTIuNzc3IDIuNzc3IDAgMSAwIDE2LjMyIDUuNDRjLjIyMi4wNjMuNDUuMS42OC4xMTMuMjU2LS4wMDUuNTEtLjA0My43NTYtLjExM1pNOC4wMDkgNy4wMDhjLjI0Ni0uNDA1LjM4My0uODY3LjM5Ny0xLjM0MWEyLjc3NyAyLjc3NyAwIDEgMC0yLjc0IDIuNzIgMi42NTEgMi42NTEgMCAwIDAgMi4zNDMtMS4zNzlaTTE2LjMyIDI4LjU2YTIuNzc3IDIuNzc3IDAgMSAwIDEuNDM2IDAgMyAzIDAgMCAwLS43NTYtLjExM2MtLjIzLjAxMy0uNDU4LjA1LS42OC4xMTNaTTI3LjAxMSA4LjAwOWMuNDEuMjUuODguMzggMS4zNi4zNzhhMi43NzcgMi43NzcgMCAxIDAtMi43NzYtMi43MmMtLjAwMi40OTQuMTM1Ljk3OC4zOTYgMS4zOTcuMjQzLjQwNi41OTcuNzM0IDEuMDIuOTQ1Wk03LjAwOCAyNi4wNjdhMi42NjQgMi42NjQgMCAwIDAtMS4zNDEtLjM5NyAyLjc3NyAyLjc3NyAwIDEgMCAyLjc3NiAyLjc3NyAyLjY2MyAyLjY2MyAwIDAgMC0uMzk2LTEuMzggMi42ODIgMi42ODIgMCAwIDAtMS4wNC0xWm0yMS4zMjUtLjM5N2EyLjY1IDIuNjUgMCAwIDAtMS4zNzkuMzk3IDIuODM0IDIuODM0IDAgMCAwLTEgMSAyLjY2MyAyLjY2MyAwIDAgMC0uMzk3IDEuMzggMi43NzcgMi43NzcgMCAxIDAgMi43NzYtMi43NzdaIi8+PHBhdGggZmlsbD0iIzgyMTAxMCIgZD0iTTI2LjQ0NCAyMi4zMjdhLjc3Ni43NzYgMCAwIDAgLjc5NC0uNzU2VjEyLjQzYS43NzYuNzc2IDAgMCAwLS43OTQtLjc1Nkg3LjU1NmEuNzc1Ljc3NSAwIDAgMC0uNzk0Ljc1NnY5LjE0MmEuNzc1Ljc3NSAwIDAgMCAuNzk0Ljc1NmgxOC44ODhabS0uMjA3LTQuMTk0aC0yLjMwNVYxNS44M2gyLjMwNXYyLjMwNFptLTUuNDYtNS40MDJoNS41MzV2Mi4zOGgtNS41MzR2LTIuMzhabTIuMzA1IDMuMDk4djIuMzA0aC01LjYxVjE1LjgzaDUuNjFabS04Ljc0NS0zLjA5OGg1LjUzNHYyLjM4aC01LjUzNHYtMi4zOFptMi4zMDQgMy4wOTh2Mi4zMDRoLTUuNTM0VjE1LjgzaDUuNTM0Wm0tOC42Ny0zLjA5OGg1LjUzNHYyLjM4SDcuOTcxdi0yLjM4Wm0wIDMuMDk4aDIuMjg2djIuMzA0SDcuOTdWMTUuODNabTUuNTM0IDUuNDIxSDcuOTcxdi0yLjM2MWg1LjUzNHYyLjM2MVptNi4zNjYgMGgtNS41MzR2LTIuMzYxaDUuNTM0djIuMzYxWm0uODMxIDB2LTIuMzYxaDUuNTM1djIuMzIzbC01LjUzNS4wMzhaIi8+PHBhdGggZmlsbD0iI0U2MjMyMyIgZD0iTTEzLjUwNiAxMi43MzFINy45N3YyLjMwNWg1LjUzNVYxMi43M1oiLz48cGF0aCBmaWxsPSIjRkY3MzgxIiBkPSJNMTkuODcxIDEyLjczMWgtNS41MzR2Mi4zMDVoNS41MzRWMTIuNzNaIi8+PHBhdGggZmlsbD0iI0U2MjMyMyIgZD0iTTI2LjIzNyAxMi43MzFoLTUuNTM1djIuMzA1aDUuNTM1VjEyLjczWm0tMTUuOTYxIDMuMDk4SDcuOTd2Mi4zMDRoMi4zMDVWMTUuODNaIi8+PHBhdGggZmlsbD0iI0ZGNzM4MSIgZD0iTTI2LjIzNyAxNS44MjloLTIuMzA1djIuMzA0aDIuMzA1VjE1LjgzWm0tOS41OTcgMGgtNS41MzR2Mi4zMDRoNS41MzVWMTUuODNaIi8+PHBhdGggZmlsbD0iI0U2MjMyMyIgZD0iTTIzLjAwNyAxNS44MjloLTUuNTM1djIuMzA0aDUuNTM1VjE1LjgzWm0tOS41MDEgMy4wOThINy45N3YyLjMwNGg1LjUzNXYtMi4zMDRaIi8+PHBhdGggZmlsbD0iI0ZGNzM4MSIgZD0iTTE5Ljg3MSAxOC45MjdoLTUuNTM0djIuMzA0aDUuNTM0di0yLjMwNFoiLz48cGF0aCBmaWxsPSIjRTYyMzIzIiBkPSJNMjYuMjM3IDE4LjkyN2gtNS41MzV2Mi4zMDRoNS41MzV2LTIuMzA0WiIvPjwvZz48ZGVmcy8+PC9nPjxkZWZzPiYjeGE7PGNsaXBQYXRoIGlkPSI2NzY5ZGJkYy1mZThmLTRhNmItOGY1MC1iNjYxYmFhMmQwYmQiPjxwYXRoIGNsYXNzPSJtc3BvcnRhbGZ4LXN2Zy1jMDEiIGQ9Ik0wIDBoMzR2MzRIMHoiLz48L2NsaXBQYXRoPiYjeGE7PC9kZWZzPiYjeGE7PC9zdmc+;" vertex="1" parent="1">
          <mxGeometry x="571.91" y="410" width="84" height="84" as="geometry" />
        </mxCell>
        <mxCell id="7-8q96B1HoA_llLnefRa-24" value="Azure vWAN" style="image;aspect=fixed;html=1;points=[];align=center;fontSize=12;image=img/lib/azure2/networking/Virtual_WANs.svg;" vertex="1" parent="1">
          <mxGeometry x="570.6" y="540" width="85.31" height="84" as="geometry" />
        </mxCell>
        <mxCell id="7-8q96B1HoA_llLnefRa-25" style="edgeStyle=none;rounded=0;orthogonalLoop=1;jettySize=auto;html=1;entryX=0.206;entryY=0.022;entryDx=0;entryDy=0;entryPerimeter=0;" edge="1" parent="1" source="7-8q96B1HoA_llLnefRa-26" target="7-8q96B1HoA_llLnefRa-23">
          <mxGeometry relative="1" as="geometry" />
        </mxCell>
        <mxCell id="7-8q96B1HoA_llLnefRa-26" value="VNET" style="image;aspect=fixed;html=1;points=[];align=center;fontSize=12;image=img/lib/azure2/networking/Virtual_Networks.svg;fillColor=#f5f5f5;fontColor=#333333;strokeColor=#666666;" vertex="1" parent="1">
          <mxGeometry x="510" y="230" width="67" height="40" as="geometry" />
        </mxCell>
        <mxCell id="7-8q96B1HoA_llLnefRa-27" style="edgeStyle=none;rounded=0;orthogonalLoop=1;jettySize=auto;html=1;entryX=0.5;entryY=0;entryDx=0;entryDy=0;" edge="1" parent="1" source="7-8q96B1HoA_llLnefRa-28" target="7-8q96B1HoA_llLnefRa-23">
          <mxGeometry relative="1" as="geometry">
            <mxPoint x="613.5409999999999" y="390" as="targetPoint" />
          </mxGeometry>
        </mxCell>
        <mxCell id="7-8q96B1HoA_llLnefRa-28" value="VNET" style="image;aspect=fixed;html=1;points=[];align=center;fontSize=12;image=img/lib/azure2/networking/Virtual_Networks.svg;fillColor=#f5f5f5;fontColor=#333333;strokeColor=#666666;" vertex="1" parent="1">
          <mxGeometry x="577" y="190" width="67" height="40" as="geometry" />
        </mxCell>
        <mxCell id="7-8q96B1HoA_llLnefRa-29" value="VNET" style="image;aspect=fixed;html=1;points=[];align=center;fontSize=12;image=img/lib/azure2/networking/Virtual_Networks.svg;fillColor=#f5f5f5;fontColor=#333333;strokeColor=#666666;" vertex="1" parent="1">
          <mxGeometry x="647.41" y="230" width="67" height="40" as="geometry" />
        </mxCell>
        <mxCell id="7-8q96B1HoA_llLnefRa-30" value="VNET" style="image;aspect=fixed;html=1;points=[];align=center;fontSize=12;image=img/lib/azure2/networking/Virtual_Networks.svg;fillColor=#f5f5f5;fontColor=#333333;strokeColor=#666666;" vertex="1" parent="1">
          <mxGeometry x="700" y="290" width="67" height="40" as="geometry" />
        </mxCell>
        <mxCell id="7-8q96B1HoA_llLnefRa-31" style="edgeStyle=none;rounded=0;orthogonalLoop=1;jettySize=auto;html=1;entryX=0.743;entryY=-0.048;entryDx=0;entryDy=0;entryPerimeter=0;fillColor=#f5f5f5;strokeColor=#666666;" edge="1" parent="1" source="7-8q96B1HoA_llLnefRa-29" target="7-8q96B1HoA_llLnefRa-23">
          <mxGeometry relative="1" as="geometry">
            <mxPoint x="640.7689999999999" y="401.72" as="targetPoint" />
          </mxGeometry>
        </mxCell>
        <mxCell id="7-8q96B1HoA_llLnefRa-32" style="edgeStyle=none;rounded=0;orthogonalLoop=1;jettySize=auto;html=1;entryX=0.947;entryY=-0.021;entryDx=0;entryDy=0;entryPerimeter=0;fillColor=#f5f5f5;strokeColor=#666666;" edge="1" parent="1" source="7-8q96B1HoA_llLnefRa-30" target="7-8q96B1HoA_llLnefRa-23">
          <mxGeometry relative="1" as="geometry">
            <mxPoint x="645.794" y="418.8399999999999" as="targetPoint" />
          </mxGeometry>
        </mxCell>
      </root>
    </mxGraphModel>
  </diagram>
</mxfile>
